<svg xmlns="http://www.w3.org/2000/svg" xmlns:xlink="http://www.w3.org/1999/xlink" width="500" zoomAndPan="magnify" viewBox="0 0 375 374.999991" height="500" preserveAspectRatio="xMidYMid meet" version="1.0"><defs><g/><clipPath id="b564729c2c"><path d="M 0 182.480469 L 375 182.480469 L 375 204.980469 L 0 204.980469 Z M 0 182.480469 " clip-rule="nonzero"/></clipPath></defs><rect x="-37.5" width="450" fill="#ffffff" y="-37.499999" height="449.999989" fill-opacity="1"/><rect x="-37.5" width="450" fill="#ffffff" y="-37.499999" height="449.999989" fill-opacity="1"/><rect x="-37.5" width="450" fill="#ffffff" y="-37.499999" height="449.999989" fill-opacity="1"/><g fill="#8f421a" fill-opacity="1"><g transform="translate(71.499981, 263.570323)"><g><path d="M 6.800781 0 C 6.601562 0.199219 6.800781 0.601562 7 0.601562 C 7.199219 0.601562 7.199219 0.601562 7.199219 0.601562 C 7.398438 0.601562 7.601562 0.398438 7.800781 0.199219 L 42.199219 -110.398438 L 76.597656 0.199219 C 76.796875 0.398438 77 0.601562 77.199219 0.601562 L 94.199219 0.601562 C 94.199219 0.601562 94.398438 0.601562 94.597656 0.398438 C 94.597656 0.199219 94.597656 0.199219 94.597656 0 L 51.199219 -139.597656 C 51 -139.796875 51 -139.796875 51 -139.796875 C 51 -139.796875 51 -139.796875 50.796875 -139.796875 C 50.796875 -139.796875 50.796875 -139.996094 50.597656 -139.996094 C 50.597656 -139.996094 50.597656 -139.796875 50.597656 -139.796875 C 50.398438 -139.796875 50.398438 -139.796875 50.398438 -139.796875 C 50.398438 -139.796875 50.398438 -139.796875 50.199219 -139.597656 L 41.597656 -112.195312 Z M 6.800781 0 "/></g></g></g><g fill="#8f421a" fill-opacity="1"><g transform="translate(145.097239, 263.570323)"><g><path d="M 50.199219 0.199219 C 50.199219 0.398438 50.199219 0.398438 50.199219 0.398438 C 50.199219 0.398438 50.199219 0.398438 50.398438 0.601562 C 50.398438 0.601562 50.398438 0.601562 50.597656 0.601562 C 50.796875 0.601562 51.199219 0.398438 51.199219 0.199219 L 78.996094 -89.199219 L 106.796875 0.199219 C 106.996094 0.398438 106.996094 0.398438 106.996094 0.398438 C 106.996094 0.398438 106.996094 0.398438 106.996094 0.601562 C 106.996094 0.601562 106.996094 0.601562 107.199219 0.601562 C 107.398438 0.601562 107.398438 0.601562 107.398438 0.601562 C 107.398438 0.601562 107.597656 0.601562 107.597656 0.601562 C 107.597656 0.601562 107.796875 0.601562 107.796875 0.601562 C 107.796875 0.601562 107.796875 0.398438 107.796875 0.398438 C 107.796875 0.398438 107.996094 0.398438 107.996094 0.199219 L 116.398438 -27 L 151.394531 -139.195312 C 151.394531 -139.398438 151.394531 -139.796875 150.996094 -139.796875 C 150.796875 -139.996094 150.394531 -139.796875 150.394531 -139.597656 L 115.796875 -29 L 87.996094 -118.195312 L 94.597656 -139.195312 C 94.597656 -139.195312 94.597656 -139.398438 94.597656 -139.398438 C 94.597656 -139.597656 94.398438 -139.796875 94.199219 -139.796875 C 93.796875 -139.796875 93.597656 -139.796875 93.597656 -139.597656 L 86.996094 -118.398438 L 78.597656 -91.199219 L 59.199219 -29 L 24.800781 -139.597656 C 24.597656 -139.796875 24.398438 -139.796875 24.199219 -139.796875 L 7.199219 -139.796875 C 7 -139.796875 7 -139.796875 6.800781 -139.597656 C 6.800781 -139.597656 6.601562 -139.398438 6.800781 -139.195312 Z M 50.199219 0.199219 "/></g></g></g><g clip-path="url(#b564729c2c)"><path fill="#ffffff" d="M 0.0429688 182.480469 L 374.957031 182.480469 L 374.957031 204.980469 L 0.0429688 204.980469 L 0.0429688 182.480469 " fill-opacity="1" fill-rule="nonzero"/></g></svg>